<?xml version="1.0" encoding="UTF-8" standalone="no"?>
<!-- Created with Inkscape (http://www.inkscape.org/) -->

<svg
   xmlns:dc="http://purl.org/dc/elements/1.1/"
   xmlns:cc="http://creativecommons.org/ns#"
   xmlns:rdf="http://www.w3.org/1999/02/22-rdf-syntax-ns#"
   xmlns:svg="http://www.w3.org/2000/svg"
   xmlns="http://www.w3.org/2000/svg"
   xmlns:sodipodi="http://sodipodi.sourceforge.net/DTD/sodipodi-0.dtd"
   xmlns:inkscape="http://www.inkscape.org/namespaces/inkscape"
   width="256"
   height="256"
   viewBox="0 0 67.733332 67.733335"
   version="1.1"
   id="svg8"
   inkscape:version="0.92.4 (5da689c313, 2019-01-14)"
   sodipodi:docname="icon.svg">
  <defs
     id="defs2" />
  <sodipodi:namedview
     id="base"
     pagecolor="#ffffff"
     bordercolor="#666666"
     borderopacity="1.0"
     inkscape:pageopacity="0.0"
     inkscape:pageshadow="2"
     inkscape:zoom="1.7021484"
     inkscape:cx="304.53242"
     inkscape:cy="90.005737"
     inkscape:document-units="px"
     inkscape:current-layer="layer1"
     showgrid="false"
     units="px"
     inkscape:window-width="3440"
     inkscape:window-height="1377"
     inkscape:window-x="1912"
     inkscape:window-y="-8"
     inkscape:window-maximized="1" />
  <metadata
     id="metadata5">
    <rdf:RDF>
      <cc:Work
         rdf:about="">
        <dc:format>image/svg+xml</dc:format>
        <dc:type
           rdf:resource="http://purl.org/dc/dcmitype/StillImage" />
        <dc:title></dc:title>
      </cc:Work>
    </rdf:RDF>
  </metadata>
  <g
     inkscape:label="Layer 1"
     inkscape:groupmode="layer"
     id="layer1"
     transform="translate(0,-229.26665)">
    <path
       style="opacity:1;fill:#004dff;fill-opacity:1;stroke:none;stroke-width:3.96875;stroke-linecap:round;stroke-linejoin:round;stroke-miterlimit:4;stroke-dasharray:none;stroke-opacity:1;paint-order:markers fill stroke"
       d="m 11.660294,234.80619 h 30.427082 c 4.397375,0 7.9375,3.54012 7.9375,7.9375 v 14.55208 c 0,4.39738 -3.540125,7.9375 -7.9375,7.9375 H 11.660294 c -2.188661,0 -5.719367,0.67743 -11.660294,3.60661 3.31284,-6.16915 3.722794,-9.33539 3.722794,-11.54411 v -14.55208 c 0,-4.39738 3.540125,-7.9375 7.9375,-7.9375 z"
       id="rect815"
       inkscape:connector-curvature="0"
       sodipodi:nodetypes="sssssscsss" />
    <path
       style="opacity:1;fill:#46ff00;fill-opacity:1;stroke:none;stroke-width:3.96875;stroke-linecap:round;stroke-linejoin:round;stroke-miterlimit:4;stroke-dasharray:none;stroke-opacity:1;paint-order:markers fill stroke"
       d="M 56.073038,257.42675 H 25.645955 c -4.397375,0 -7.9375,3.54012 -7.9375,7.9375 v 14.55208 c 0,4.39738 3.540125,7.9375 7.9375,7.9375 h 30.427083 c 2.188661,0 5.719367,0.67743 11.660295,3.60661 -3.31284,-6.16915 -3.722794,-9.33539 -3.722794,-11.54411 v -14.55208 c 0,-4.39738 -3.540125,-7.9375 -7.937501,-7.9375 z"
       id="rect815-8"
       inkscape:connector-curvature="0"
       sodipodi:nodetypes="sssssscsss" />
    <path
       style="opacity:1;fill:#23a680;fill-opacity:1;stroke:none;stroke-width:3.96875;stroke-linecap:round;stroke-linejoin:round;stroke-miterlimit:4;stroke-dasharray:none;stroke-opacity:1;paint-order:markers fill stroke"
       d="m 25.64286,257.42675 c -4.35347,0 -7.864695,3.47049 -7.934405,7.80676 H 42.08423 c 4.35353,0 7.86478,-3.4704 7.9344,-7.80676 z"
       id="rect815-1"
       inkscape:connector-curvature="0" />
  </g>
</svg>
